# xmcd
#
# Track frame offsets:
#	150
#	16575
#	31800
#	46875
#	65025
#	82350
#	98850
#	115275
#	133575
#	153375
#	168375
#	184800
#	200625
#	216000
#	231750
#	248400
#	264825
#
# Disc length: 3551 seconds
#
# Revision: 2
# Processed by: cddbd v1.5.1PL2 Copyright (c) Steve Scherf et al.
# Submitted via: audiograbber 1.83.01
#
DISCID=e20ddd11
DTITLE=Big Country - BCY-003
DYEAR=2006
DGENRE=Country
TTITLE0=Wilson, Gretchen - All Jacked Up
TTITLE1=Britt, Cathering and Elton John - Where We Both Say Goodbye
TTITLE2=Brooks and Dunn - Play Something Country
TTITLE3=Evans, Sara - A Real Fine Place To Start
TTITLE4=Morgan, Craig - Redneck Yacht Club
TTITLE5=McGraw, Tim - Do You Want Fries With That
TTITLE6=Womack, Lee Ann - He Oughta Know That By Now
TTITLE7=Montgomery Gentry - Something To Be Proud Of
TTITLE8=Yearwood, Trisha - Georgia Rain
TTITLE9=Lonestar - You're Like Comin' Home
TTITLE10=Aldean, Jason - Hicktown
TTITLE11=Messina, Jo Dee - Delicious Surprise
TTITLE12=Larsen, Blaine - The Best Man
TTITLE13=Trick Pony - It's A Heartache
TTITLE14=Twain, Shania - I Ain't No Quitter
TTITLE15=Wilson, Gretchen - All Jacked Up VOCAL
TTITLE16=xx - BLANK
EXTD=
EXTT0=
EXTT1=
EXTT2=
EXTT3=
EXTT4=
EXTT5=
EXTT6=
EXTT7=
EXTT8=
EXTT9=
EXTT10=
EXTT11=
EXTT12=
EXTT13=
EXTT14=
EXTT15=
EXTT16=
PLAYORDER=
